# xmcd CD database file
#
# Track frame offsets:
#	150
#	9570
#	23960
#	38507
#	46977
#	56747
#	67680
#	80180
#	90650
#	101022
#	112552
#	122740
#	133865
#	146932
#	157725
#	167465
#	176140
#	186100
#	198317
#	215352
#
# Disc length: 3047 seconds
#
# Revision: 0
# Processed by: cddbd v1.5.2PL0 Copyright (c) Steve Scherf et al.
# Submitted via: CDex 1.51
#
DISCID=0a0be514
DTITLE=francoise hardy - 2002 Zoom (BMG FR 2002)
DYEAR=2002
DGENRE=Blues
TTITLE0=j'suis d'accord
TTITLE1=tous les garcons et les filles
TTITLE2=c'est a l'amour auquel je pense
TTITLE3=le premier bonheur du jour
TTITLE4=j'aurais voulu
TTITLE5=le temps de l'amour
TTITLE6=va pas prendre un tambour
TTITLE7=mon amie la rose
TTITLE8=et meme
TTITLE9=dans le monde entier
TTITLE10=la nuit est sur la ville
TTITLE11=pourtant tu m'aimes
TTITLE12=je veux qu'il revienne
TTITLE13=l'amitié
TTITLE14=ce petit coeur
TTITLE15=comme
TTITLE16=peut-etre que je t'aime
TTITLE17=rendez-vous d'automne
TTITLE18=la maison ou j'ai grandi
TTITLE19=je ne suis pas pour personne
EXTD=YEAR: 2002
EXTT0=
EXTT1=
EXTT2=
EXTT3=
EXTT4=
EXTT5=
EXTT6=
EXTT7=
EXTT8=
EXTT9=
EXTT10=
EXTT11=
EXTT12=
EXTT13=
EXTT14=
EXTT15=
EXTT16=
EXTT17=
EXTT18=
EXTT19=
PLAYORDER=
